# xmcd CD database file
#
# Track frame offsets:
#	150
#	12040
#	24373
#	34603
#	45598
#	56355
#	67005
#	78395
#	90808
#	99060
#	111695
#	124883
#	143048
#	157498
#	169450
#	183455
#
# Disc length: 2611 seconds
#
# Revision: 2
# Processed by: cddbd v1.5.1PL0 Copyright (c) Steve Scherf et al.
# Submitted via: cdripper 1.0.7
#
DISCID=ce0a3110
DTITLE=Paul Rishell - Blues On A Holiday
DYEAR=1991
DGENRE=Blues
TTITLE0=Big Roas Blues
TTITLE1=Creepy John
TTITLE2=Jinx Blues
TTITLE3=Dallas
TTITLE4=Careless Love
TTITLE5=Louise
TTITLE6=Too Tight
TTITLE7=Trouble Blues
TTITLE8=Honey It Must Be Love
TTITLE9=Talk To Me Baby
TTITLE10=Keep It To Yourself
TTITLE11=Possession
TTITLE12=You Got Me Wrong
TTITLE13=Like I Used To Do
TTITLE14=Blues On A Holiday
TTITLE15=Hoodoo Party
EXTD=YEAR: 1991
EXTT0=
EXTT1=
EXTT2=
EXTT3=
EXTT4=
EXTT5=
EXTT6=
EXTT7=
EXTT8=
EXTT9=
EXTT10=
EXTT11=
EXTT12=
EXTT13=
EXTT14=
EXTT15=
PLAYORDER=
